<?xml version="1.0" encoding="UTF-8"?>
<svg width="20px" height="20px" viewBox="0 0 20 20" version="1.1" xmlns="http://www.w3.org/2000/svg" xmlns:xlink="http://www.w3.org/1999/xlink">
    <title>🔹 Icon Color</title>
    <g id="UI---Mobile" stroke="none" stroke-width="1" fill="none" fill-rule="evenodd">
        <g id="VL-Mobile---Letter-4" transform="translate(-205.000000, -843.000000)" fill="#FFFFFF">
            <g id="Group-3" transform="translate(193.000000, 836.000000)">
                <path d="M22,7 C16.48,7 12,11.48 12,17 C12,22.52 16.48,27 22,27 C27.52,27 32,22.52 32,17 C32,11.48 27.52,7 22,7 Z M16.5,14 L19.65,10.85 C19.85,10.65 20.16,10.65 20.36,10.85 L23.5,14 L21,14 L21,18 L19,18 L19,14 L16.5,14 Z M24.35,23.15 C24.15,23.35 23.84,23.35 23.64,23.15 L20.5,20 L23,20 L23,16 L25,16 L25,20 L27.5,20 L24.35,23.15 Z" id="🔹-Icon-Color"></path>
            </g>
        </g>
    </g>
</svg>