<?xml version="1.0" encoding="UTF-8"?>
<svg width="21px" height="18px" viewBox="0 0 21 18" version="1.1" xmlns="http://www.w3.org/2000/svg" xmlns:xlink="http://www.w3.org/1999/xlink">
    <title>🔹 Icon error@1x</title>
    <g id="UI---Desktop" stroke="none" stroke-width="1" fill="none" fill-rule="evenodd">
        <g id="Notifications-all" transform="translate(-163.000000, -355.000000)" fill="#FFFFFF">
            <g id="Group-3-Copy-3" transform="translate(146.000000, 332.000000)">
                <path d="M18.0028717,41.0025 L36.5328717,41.0025 C37.3028717,41.0025 37.7828717,40.1725 37.4028717,39.5025 L28.1328717,23.5025 C27.7428717,22.8325 26.7828717,22.8325 26.4028717,23.5025 L17.1328717,39.5025 C16.7528717,40.1725 17.2328717,41.0025 18.0028717,41.0025 Z M28.2728717,38.0025 L26.2728717,38.0025 L26.2728717,36.0025 L28.2728717,36.0025 L28.2728717,38.0025 Z M27.2728717,34.0025 C26.7228717,34.0025 26.2728717,33.5525 26.2728717,33.0025 L26.2728717,31.0025 C26.2728717,30.4525 26.7228717,30.0025 27.2728717,30.0025 C27.8228717,30.0025 28.2728717,30.4525 28.2728717,31.0025 L28.2728717,33.0025 C28.2728717,33.5525 27.8228717,34.0025 27.2728717,34.0025 Z" id="🔹-Icon-error"></path>
            </g>
        </g>
    </g>
</svg>