<?xml version="1.0" encoding="UTF-8"?>
<svg width="16px" height="20px" viewBox="0 0 16 20" version="1.1" xmlns="http://www.w3.org/2000/svg" xmlns:xlink="http://www.w3.org/1999/xlink">
    <title>🔹 Icon Doc@1x</title>
    <g id="UI---Desktop" stroke="none" stroke-width="1" fill="none" fill-rule="evenodd">
        <g id="Notifications-all" transform="translate(-165.000000, -252.000000)" fill="#FFFFFF">
            <g id="Group-3-Copy-2" transform="translate(146.000000, 230.000000)">
                <path d="M29.59,22.59 C29.21,22.21 28.7,22 28.17,22 L21,22 C19.9,22 19,22.9 19,24 L19,40 C19,41.1 19.89,42 20.99,42 L33,42 C34.1,42 35,41.1 35,40 L35,28.83 C35,28.3 34.79,27.79 34.41,27.42 L29.59,22.59 Z M30,36 L28,36 L28,38 C28,38.55 27.55,39 27,39 C26.45,39 26,38.55 26,38 L26,36 L24,36 C23.45,36 23,35.55 23,35 C23,34.45 23.45,34 24,34 L26,34 L26,32 C26,31.45 26.45,31 27,31 C27.55,31 28,31.45 28,32 L28,34 L30,34 C30.55,34 31,34.45 31,35 C31,35.55 30.55,36 30,36 Z M28,28 L28,23.5 L33.5,29 L29,29 C28.45,29 28,28.55 28,28 Z" id="🔹-Icon-Doc"></path>
            </g>
        </g>
    </g>
</svg>