<?xml version="1.0" encoding="UTF-8"?>
<svg width="18px" height="23px" viewBox="0 0 18 23" version="1.1" xmlns="http://www.w3.org/2000/svg" xmlns:xlink="http://www.w3.org/1999/xlink">
    <title>🔹 Icon Color</title>
    <g id="Symbols" stroke="none" stroke-width="1" fill="none" fill-rule="evenodd">
        <g id="Group-4-Copy-2" transform="translate(-13.000000, -10.000000)" fill="#FFFFFF">
            <path d="M14.2857143,30.4444444 C14.2857143,31.85 15.4428571,33 16.8571429,33 L27.1428571,33 C28.5571429,33 29.7142857,31.85 29.7142857,30.4444444 L29.7142857,17.6666667 C29.7142857,16.2611111 28.5571429,15.1111111 27.1428571,15.1111111 L16.8571429,15.1111111 C15.4428571,15.1111111 14.2857143,16.2611111 14.2857143,17.6666667 L14.2857143,30.4444444 Z M18.3614286,20.4394444 C18.8628571,19.9411111 19.6728571,19.9411111 20.1742857,20.4394444 L22,22.2538889 L23.8257143,20.4394444 C24.3271429,19.9411111 25.1371429,19.9411111 25.6385714,20.4394444 C26.14,20.9377778 26.14,21.7427778 25.6385714,22.2411111 L23.8128571,24.0555556 L25.6385714,25.87 C26.14,26.3683333 26.14,27.1733333 25.6385714,27.6716667 C25.1371429,28.17 24.3271429,28.17 23.8257143,27.6716667 L22,25.8572222 L20.1742857,27.6716667 C19.6728571,28.17 18.8628571,28.17 18.3614286,27.6716667 C17.86,27.1733333 17.86,26.3683333 18.3614286,25.87 L20.1871429,24.0555556 L18.3614286,22.2411111 C17.86,21.7555556 17.86,20.9377778 18.3614286,20.4394444 Z M26.5,11.2777778 L25.5871429,10.3705556 C25.3557143,10.1405556 25.0214286,10 24.6871429,10 L19.3128571,10 C18.9785714,10 18.6442857,10.1405556 18.4128571,10.3705556 L17.5,11.2777778 L14.2857143,11.2777778 C13.5785714,11.2777778 13,11.8527778 13,12.5555556 C13,13.2583333 13.5785714,13.8333333 14.2857143,13.8333333 L29.7142857,13.8333333 C30.4214286,13.8333333 31,13.2583333 31,12.5555556 C31,11.8527778 30.4214286,11.2777778 29.7142857,11.2777778 L26.5,11.2777778 Z" id="🔹-Icon-Color"></path>
        </g>
    </g>
</svg>