<svg id="Layer_1" data-name="Layer 1" xmlns="http://www.w3.org/2000/svg" viewBox="0 0 79.47 72.67"><g id="Group_2287" data-name="Group 2287"><path id="Path_3721" data-name="Path 3721" d="M33.34,0c.53-.24,45.54,8.43,46.11,9.5S62.2,57.71,62.2,57.71,57.76,70.39,45.11,72.5s-10-15.42-10-15.42L.24,42.51s1.74,9.08,7.52,8,9.87-8.21,10.68-10.41S32.82.24,33.34,0Z" transform="translate(0 0)" fill="#89afff"/><path id="Path_3722" data-name="Path 3722" d="M.17,42.57c-.13-1.15,35,13.5,35,14.5s-.8,5.13.52,9.49a8.93,8.93,0,0,0,4.77,5.71S6.11,57.73,4.72,57.13s-3.32-3-4.25-6.55S.3,43.72.17,42.57Z" transform="translate(0 0)" fill="#648fea"/><path id="Path_3723" data-name="Path 3723" d="M37.23,8.61a8.43,8.43,0,0,1,4.53,1.48c2.48,1.59,3.68.06,5.21,1" transform="translate(0 0)" fill="none" stroke="#fff" stroke-linecap="round" stroke-width="1.5"/><path id="Path_3724" data-name="Path 3724" d="M45.57,15.51a8.35,8.35,0,0,1-4.47-1.66c-2.43-1.68-3.68-.2-5.18-1.23" transform="translate(0 0)" fill="none" stroke="#fff" stroke-linecap="round" stroke-width="1.5"/><path id="Path_3725" data-name="Path 3725" d="M33.16,19.49s6.49-.36,14.37,5.07,11.7.21,16.57,3.55" transform="translate(0 0)" fill="none" stroke="#fff" stroke-linecap="round" stroke-width="1.5"/><path id="Path_3726" data-name="Path 3726" d="M61.45,35.45S55,35.93,47,30.62s-11.7,0-16.63-3.26" transform="translate(0 0)" fill="none" stroke="#fff" stroke-linecap="round" stroke-width="1.5"/><path id="Path_3727" data-name="Path 3727" d="M27.71,33.09s6.5-.36,14.38,5.07,11.7.21,16.57,3.55" transform="translate(0 0)" fill="none" stroke="#fff" stroke-linecap="round" stroke-width="1.5"/><path id="Path_3728" data-name="Path 3728" d="M54.79,50.93s-6.51-.09-14-6.06-11.66-1-16.28-4.7" transform="translate(0 0)" fill="none" stroke="#fff" stroke-linecap="round" stroke-width="1.5"/></g></svg>