<svg xmlns="http://www.w3.org/2000/svg" width="16" height="14" viewBox="0 0 16 14">
    <g fill="none" fill-rule="evenodd">
        <g fill="#FFF">
            <g>
                <path d="M22 20h-8c-.55 0-1 .45-1 1s.45 1 1 1h8c.55 0 1-.45 1-1s-.45-1-1-1zm6-8H14c-.55 0-1 .45-1 1s.45 1 1 1h14c.55 0 1-.45 1-1s-.45-1-1-1zm-14 6h14c.55 0 1-.45 1-1s-.45-1-1-1H14c-.55 0-1 .45-1 1s.45 1 1 1zm-1-9c0 .55.45 1 1 1h14c.55 0 1-.45 1-1s-.45-1-1-1H14c-.55 0-1 .45-1 1z" transform="translate(-631 -280) translate(618 272)"/>
            </g>
        </g>
    </g>
</svg>
