<svg id="Layer_1" data-name="Layer 1" xmlns="http://www.w3.org/2000/svg" width="87.9746" height="44.4722" viewBox="0 0 87.9746 44.4722"><defs><style>.cls-1{opacity:0.999;}.cls-1,.cls-2{isolation:isolate;}.cls-3{fill:#68c7ff;}.cls-4{fill:#454545;}</style></defs><g id="Group_18677" data-name="Group 18677"><g id="Logo" class="cls-1"><g class="cls-2"><path class="cls-3" d="M4.6493,3.4974H7.558v1.628a4.6813,4.6813,0,0,1,3.7172-1.8975A4.003,4.003,0,0,1,13.263,3.7a3.6268,3.6268,0,0,1,1.3814,1.4258A5.5128,5.5128,0,0,1,16.34,3.7a4.1594,4.1594,0,0,1,1.9429-.4717,4.3288,4.3288,0,0,1,2.2236.5332,3.2653,3.2653,0,0,1,1.3589,1.5674,6.7881,6.7881,0,0,1,.3257,2.4707v7.625H19.0355V8.6078a5.065,5.065,0,0,0-.3257-2.291,1.4949,1.4949,0,0,0-1.3476-.6738,2.15,2.15,0,0,0-1.2466.4042,2.243,2.243,0,0,0-.8423,1.1846,8.5163,8.5163,0,0,0-.2583,2.4649v5.7275H11.8592V8.8881a9.069,9.069,0,0,0-.1684-2.2461,1.4392,1.4392,0,0,0-.522-.753,1.6582,1.6582,0,0,0-.96-.246,2.3009,2.3009,0,0,0-1.3139.3925A2.16,2.16,0,0,0,8.0575,7.17a8.4448,8.4448,0,0,0-.2525,2.459v5.7949H4.6493Z"/><path class="cls-3" d="M23.2259,9.2924a6.4567,6.4567,0,0,1,.7749-3.044,5.3267,5.3267,0,0,1,2.1958-2.2461,6.5248,6.5248,0,0,1,3.1724-.7744,5.9544,5.9544,0,0,1,4.436,1.7578,6.073,6.073,0,0,1,1.73,4.4414,6.1441,6.1441,0,0,1-1.7461,4.4864,5.9041,5.9041,0,0,1-4.397,1.78,6.9226,6.9226,0,0,1-3.1274-.7412A5.086,5.086,0,0,1,24.0008,12.78,7.2428,7.2428,0,0,1,23.2259,9.2924Zm3.2344.1689a3.95,3.95,0,0,0,.8423,2.7168,2.7536,2.7536,0,0,0,4.15,0,4.0061,4.0061,0,0,0,.8364-2.74,3.9334,3.9334,0,0,0-.8364-2.6953,2.7536,2.7536,0,0,0-4.15,0A3.953,3.953,0,0,0,26.46,9.4613Z"/><path class="cls-3" d="M47.474,15.4242H44.3182V9.3373a9.4107,9.4107,0,0,0-.2021-2.499,1.7465,1.7465,0,0,0-.6573-.8809,1.8729,1.8729,0,0,0-1.0947-.3144,2.5281,2.5281,0,0,0-1.4712.4492A2.2609,2.2609,0,0,0,40,7.2816a10.3128,10.3128,0,0,0-.2412,2.74v5.4023H36.6029V3.4974H39.534v1.752a4.8892,4.8892,0,0,1,5.84-1.6455,3.2039,3.2039,0,0,1,1.3086.9609A3.4836,3.4836,0,0,1,47.3,5.889a9.8486,9.8486,0,0,1,.1739,2.1231Z"/><path class="cls-3" d="M51.6527,7.1361,48.7894,6.62a4.4553,4.4553,0,0,1,1.6621-2.56,6.0848,6.0848,0,0,1,3.5039-.8311,7.5563,7.5563,0,0,1,3.1445.5A3.1335,3.1335,0,0,1,58.554,4.9965a6.5011,6.5011,0,0,1,.4209,2.8242l-.0332,3.6836a12.8359,12.8359,0,0,0,.1514,2.3193,6.78,6.78,0,0,0,.5674,1.6006H56.5384q-.1245-.315-.3037-.9316c-.0517-.1875-.09-.3116-.1123-.3711a5.6934,5.6934,0,0,1-1.73,1.18,4.9543,4.9543,0,0,1-1.9648.3925,4.0621,4.0621,0,0,1-2.9034-1,3.3222,3.3222,0,0,1-1.0615-2.5263,3.3922,3.3922,0,0,1,.4834-1.8028A3.1547,3.1547,0,0,1,50.3,9.1517a10.6091,10.6091,0,0,1,2.51-.7353,17.144,17.144,0,0,0,3.0654-.7754V7.3265A1.6343,1.6343,0,0,0,55.4261,6.03a2.6928,2.6928,0,0,0-1.6953-.3867,2.2611,2.2611,0,0,0-1.3144.331A2.306,2.306,0,0,0,51.6527,7.1361Zm4.2226,2.5606a19.7891,19.7891,0,0,1-1.92.4834,5.7712,5.7712,0,0,0-1.7187.55,1.3179,1.3179,0,0,0-.6172,1.1123,1.5427,1.5427,0,0,0,.4941,1.1445,1.7226,1.7226,0,0,0,1.2578.4834,2.7354,2.7354,0,0,0,1.628-.5615,1.9782,1.9782,0,0,0,.7529-1.0449,6.2558,6.2558,0,0,0,.123-1.5381Z"/><path class="cls-3" d="M71.1058,7.0238l-3.1113.5615a2.2578,2.2578,0,0,0-.7129-1.4033,2.1554,2.1554,0,0,0-1.4434-.4726,2.3566,2.3566,0,0,0-1.8808.8144,4.1746,4.1746,0,0,0-.7022,2.7236,4.8336,4.8336,0,0,0,.7129,2.9991,2.3419,2.3419,0,0,0,1.915.875,2.1261,2.1261,0,0,0,1.4717-.5108,3.0736,3.0736,0,0,0,.8086-1.7568l3.1.5273A5.4942,5.4942,0,0,1,69.41,14.6039a5.7329,5.7329,0,0,1-3.6719,1.09,5.4634,5.4634,0,0,1-4.1728-1.65A6.4072,6.4072,0,0,1,60.01,9.4721a6.4179,6.4179,0,0,1,1.56-4.5987,5.5457,5.5457,0,0,1,4.2227-1.6455,5.7615,5.7615,0,0,1,3.4648.9375A5.1978,5.1978,0,0,1,71.1058,7.0238Z"/><path class="cls-3" d="M71.388,9.2924a6.4561,6.4561,0,0,1,.7744-3.044,5.3278,5.3278,0,0,1,2.1963-2.2461,6.5214,6.5214,0,0,1,3.1719-.7744,5.9555,5.9555,0,0,1,4.4365,1.7578,6.075,6.075,0,0,1,1.73,4.4414,6.1441,6.1441,0,0,1-1.7461,4.4864,5.9051,5.9051,0,0,1-4.3974,1.78,6.9207,6.9207,0,0,1-3.127-.7412A5.0872,5.0872,0,0,1,72.1624,12.78,7.2428,7.2428,0,0,1,71.388,9.2924Zm3.2344.1689a3.9494,3.9494,0,0,0,.8418,2.7168,2.7541,2.7541,0,0,0,4.15,0,4.006,4.006,0,0,0,.8359-2.74,3.9333,3.9333,0,0,0-.8359-2.6953,2.7541,2.7541,0,0,0-4.15,0A3.9529,3.9529,0,0,0,74.6224,9.4613Z"/></g><g class="cls-2"><path class="cls-4" d="M13.4813,28.7518q0,1.0094-1.5234,1.7A6.1374,6.1374,0,0,1,9.514,31a5.18,5.18,0,0,1-1.7827-.377,8.9519,8.9519,0,0,1-1.7539-1.2158Q4.6553,28.3349,4.6551,27.93q0-.8981,1.064-.8116h.1723q.0572.8731,1.84,1.8887a5.6432,5.6432,0,0,0,2.5874.93q1.265,0,1.2651-.8652,0-.5186-1.5522-1.44a16.6211,16.6211,0,0,1-2.9038-1.9882,4.7554,4.7554,0,0,1-1.5816-3.5166,5.6545,5.6545,0,0,1,.7764-2.8531A2.593,2.593,0,0,1,8.5653,17.66a4.5539,4.5539,0,0,1,2.3574.9052,3.4358,3.4358,0,0,1,1.61,1.8257,6.4065,6.4065,0,0,1,.23,1.8115,8.4468,8.4468,0,0,1-.4023,2.4444.9577.9577,0,0,1-.604.2011,2.1,2.1,0,0,1-.6323-.1582q-.4314-.1581-.4312-.331,0,.1157.3159-.6328a4.6931,4.6931,0,0,0,.2305-1.7823q0-3.0761-1.9263-3.0766-1.0071,0-1.61,1.355A5.1519,5.1519,0,0,0,7.1849,22.44a3.6442,3.6442,0,0,0,1.6392,2.7383,34.7733,34.7733,0,0,0,3.0185,1.9883Q13.4811,28.1761,13.4813,28.7518Z"/><path class="cls-4" d="M24.2855,24.7606a8.2865,8.2865,0,0,1-1.0923,4.3125A3.9912,3.9912,0,0,1,19.6,31.287a3.8417,3.8417,0,0,1-3.479-1.8115,7.32,7.32,0,0,1-.9488-3.9668,11.3146,11.3146,0,0,1,1.0923-4.8018q1.3806-2.904,3.5078-2.9038a3.3305,3.3305,0,0,1,1.5523.6328Q24.2853,20.2766,24.2855,24.7606Zm-1.38-.0283a10.4314,10.4314,0,0,0-.4888-3.3066q-.7192-2.0406-2.2138-2.041-1.7248,0-2.7027,2.2714a9.5,9.5,0,0,0-.7475,3.7657A7.9106,7.9106,0,0,0,17.27,28.47,2.456,2.456,0,0,0,19.6,30.1659a2.8285,2.8285,0,0,0,2.6162-1.9551A8.3472,8.3472,0,0,0,22.9056,24.7323Z"/><path class="cls-4" d="M28.5633,30.1376q0,.747-.8052.7471-1.2648,0-1.2358-5.2042l.0859-12.9086a6.8153,6.8153,0,0,0-.0859-.9063,6.67,6.67,0,0,1-.0864-.876,1.68,1.68,0,0,1,.92-.4033,1.3836,1.3836,0,0,1,.8052.2881.8348.8348,0,0,1,.4023.69,2.639,2.639,0,0,1-.1435.748q-.1729.5757-.2012.7187a33.27,33.27,0,0,0-.3452,5.462q0,5.6652-.0288,5.4633a31.7962,31.7962,0,0,0,.46,5.3184,1.4174,1.4174,0,0,0,.1294.3887A1.3026,1.3026,0,0,1,28.5633,30.1376Z"/><path class="cls-4" d="M32.7835,19.183a7.4848,7.4848,0,0,1-.2441,1.5532,7.4444,7.4444,0,0,0-.2446,1.5518v6.3545a7.2159,7.2159,0,0,0,.2876,1.7246.3513.3513,0,0,1-.316.23q-1.4091,0-1.4091-1.3515V18.6937a1.385,1.385,0,0,1,1.4375,0Q32.7834,18.8959,32.7835,19.183Zm.5464-4.3125q0,.9771-.92.9775a1.4954,1.4954,0,0,1-1.0063-.4023,1.1987,1.1987,0,0,1-.46-.92.8641.8641,0,0,1,.9775-.9776,1.44,1.44,0,0,1,.9917.3731A1.2215,1.2215,0,0,1,33.33,14.8705Z"/><path class="cls-4" d="M43.6737,27.4413q0,.6944-1.1787,1.8662a5.0719,5.0719,0,0,1-1.9263,1.374A5.7736,5.7736,0,0,1,38.9012,31a3.75,3.75,0,0,1-3.22-1.5274,5.6278,5.6278,0,0,1-1.0352-3.5146,15.2968,15.2968,0,0,1,.9488-4.9561q1.1784-3.4006,2.9326-3.4a4.748,4.748,0,0,1,2.2138.8194q1.38.8189,1.5523,1.5669a7.971,7.971,0,0,1,.2012,1.7539q0,3.1626-.9488,3.1631A1.186,1.186,0,0,1,41,24.7323q-.3164-.1728-.3159-.4023a.6285.6285,0,0,1,.1148-.3018c.0766-.125.1245-.206.144-.2451a7.7085,7.7085,0,0,0,.1148-1.7246q0-3.192-1.4375-3.1919-1.5813,0-2.5874,2.9116a13.5246,13.5246,0,0,0-.7476,4.2666,6.0734,6.0734,0,0,0,.4888,2.5938,2.1551,2.1551,0,0,0,2.0415,1.3544,3.3909,3.3909,0,0,0,1.9546-.8691,5.6469,5.6469,0,0,0,1.4951-1.6523q.1149-.29.3452-.8116a.4664.4664,0,0,1,.4023-.2031c.1153,0,.2539.1309.417.3906A1.3039,1.3039,0,0,1,43.6737,27.4413Z"/><path class="cls-4" d="M47.6634,19.183a7.4505,7.4505,0,0,1-.2441,1.5532,7.4375,7.4375,0,0,0-.2442,1.5518v6.3545a7.2359,7.2359,0,0,0,.2871,1.7246.35.35,0,0,1-.3154.23q-1.4091,0-1.4092-1.3515V18.6937a1.385,1.385,0,0,1,1.4375,0Q47.6629,18.8959,47.6634,19.183Zm.5469-4.3125q0,.9771-.92.9775a1.4971,1.4971,0,0,1-1.0069-.4023,1.1989,1.1989,0,0,1-.46-.92.8643.8643,0,0,1,.9775-.9776,1.441,1.441,0,0,1,.9922.3731A1.2235,1.2235,0,0,1,48.21,14.8705Z"/><path class="cls-4" d="M54.96,21.368a2.7541,2.7541,0,0,1-1.0928.2881,4.5591,4.5591,0,0,0-1.0918.2012q-.0293.3164-.0293,3.1914,0,2.2427.0576,3.0186a5.5776,5.5776,0,0,0,.1436,1.0058,5.6632,5.6632,0,0,1,.1445,1.0645.6262.6262,0,0,1-.2881.46.8661.8661,0,0,1-.5175.23q-.5757,0-.92-1.1787a6.3641,6.3641,0,0,1-.2294-1.6386V22.03q-.1686-.1436-1.2891,0-.8965.1142-.8965-.6622,0-1.0912,2.3291-1.0058l.374-5.2046a.8823.8823,0,0,0-.0722-.2725.8841.8841,0,0,1-.0723-.2734.4309.4309,0,0,1,.23-.3311.8132.8132,0,0,1,.5459-.1289q1.0064.0866,1.0068,1.0059a17.1266,17.1266,0,0,1-.2012,2.1563,16.9281,16.9281,0,0,0-.2011,2.1284,3.7171,3.7171,0,0,0,.0566.6611l1.582-.0859q.8043,0,.8047.6318A.8247.8247,0,0,1,54.96,21.368Z"/><path class="cls-4" d="M65.4486,24.7606a8.291,8.291,0,0,1-1.0918,4.3125A3.9923,3.9923,0,0,1,60.763,31.287a3.8426,3.8426,0,0,1-3.48-1.8115,7.3252,7.3252,0,0,1-.9482-3.9668,11.3139,11.3139,0,0,1,1.0918-4.8018q1.3813-2.904,3.5078-2.9038a3.33,3.33,0,0,1,1.5527.6328Q65.4482,20.2766,65.4486,24.7606Zm-1.38-.0283a10.446,10.446,0,0,0-.4883-3.3066q-.7192-2.0406-2.2139-2.041-1.7255,0-2.7031,2.2714a9.5089,9.5089,0,0,0-.747,3.7657,7.9126,7.9126,0,0,0,.5175,3.0478,2.4556,2.4556,0,0,0,2.3291,1.6963,2.8288,2.8288,0,0,0,2.6162-1.9551A8.3456,8.3456,0,0,0,64.0687,24.7323Z"/><path class="cls-4" d="M73.7513,20.1893q0,.1158-.0293.4893-.3735.5757-.7187.5752a.4846.4846,0,0,1-.4024-.2881q-.0864-1.81-1.4951-1.811-.92,0-1.8105,3.3921a12.714,12.714,0,0,0-.3457,3.3066,20.2849,20.2849,0,0,0,.1445,3.249c.0185.0576.0664.1768.1435.3594a1.21,1.21,0,0,1,.1153.417q0,.6329-.8633.6318a.8767.8767,0,0,1-.9775-1.0058,1.8051,1.8051,0,0,1,.0722-.417,1.7852,1.7852,0,0,0,.0723-.417q0-1.5805-.1445-4.7432t-.1436-4.7446c0-.3828.0674-.6182.2012-.7041a1.573,1.573,0,0,1,.7763-.13q.7193,0,.834.5176.0279.5757.0576,1.1216.7471-1.1491.8623-1.2945a1.7888,1.7888,0,0,1,1.3223-.7187,1.9767,1.9767,0,0,1,1.0352.3164,3.3992,3.3992,0,0,1,.791.8916A2.3275,2.3275,0,0,1,73.7513,20.1893Z"/><path class="cls-4" d="M82.888,28.7518q0,1.0094-1.5234,1.7A6.137,6.137,0,0,1,78.9212,31a5.183,5.183,0,0,1-1.7832-.377,8.97,8.97,0,0,1-1.7539-1.2158q-1.3212-1.0722-1.3222-1.4775,0-.8981,1.0644-.8116h.1719q.0571.8731,1.84,1.8887a5.6436,5.6436,0,0,0,2.5879.93q1.2642,0,1.2647-.8652,0-.5186-1.5518-1.44a16.6343,16.6343,0,0,1-2.9043-1.9882,4.7547,4.7547,0,0,1-1.581-3.5166,5.6544,5.6544,0,0,1,.7763-2.8531A2.5923,2.5923,0,0,1,77.972,17.66a4.5536,4.5536,0,0,1,2.3574.9052,3.4389,3.4389,0,0,1,1.61,1.8257,6.4074,6.4074,0,0,1,.23,1.8115,8.43,8.43,0,0,1-.4024,2.4444.9561.9561,0,0,1-.6035.2011,2.1027,2.1027,0,0,1-.6328-.1582q-.4307-.1581-.4307-.331c0,.0771.1045-.1338.3155-.6328a4.6956,4.6956,0,0,0,.23-1.7823q0-3.0761-1.9257-3.0766-1.0079,0-1.61,1.355a5.1519,5.1519,0,0,0-.5176,2.2187,3.6434,3.6434,0,0,0,1.6387,2.7383,34.868,34.868,0,0,0,3.0186,1.9883Q82.8885,28.1761,82.888,28.7518Z"/></g></g><g id="LETTER_BUILDER" data-name="LETTER BUILDER" class="cls-2"><g class="cls-2"><path class="cls-4" d="M4.4979,40.4247v-6.084h.8052v5.3662H8.3v.7178Z"/><path class="cls-4" d="M9.9124,40.4247v-6.084h4.4v.7178H10.7176v1.8633h3.3662v.7138H10.7176v2.0713H14.453v.7178Z"/><path class="cls-4" d="M17.7513,40.4247V35.0585H15.7464v-.7178h4.8228v.7178H18.556v5.3662Z"/><path class="cls-4" d="M23.5809,40.4247V35.0585H21.576v-.7178h4.8228v.7178H24.3856v5.3662Z"/><path class="cls-4" d="M27.8788,40.4247v-6.084h4.3994v.7178H28.6839v1.8633H32.05v.7138H28.6839v2.0713h3.7354v.7178Z"/><path class="cls-4" d="M34.181,40.4247v-6.084h2.6982a3.59,3.59,0,0,1,1.2364.1631,1.3557,1.3557,0,0,1,.6767.5791,1.7289,1.7289,0,0,1,.253.918,1.5287,1.5287,0,0,1-.419,1.0908,2.12,2.12,0,0,1-1.2949.5644,2.0873,2.0873,0,0,1,.4853.3037,4.167,4.167,0,0,1,.6685.8086l1.0581,1.6563H38.5306l-.8047-1.2656q-.3529-.548-.581-.8389a1.8234,1.8234,0,0,0-.4092-.4063,1.1877,1.1877,0,0,0-.3672-.1621,2.4013,2.4013,0,0,0-.4482-.0293h-.9336v2.7022Zm.8057-3.3994h1.73a2.5914,2.5914,0,0,0,.8633-.1143.9167.9167,0,0,0,.4732-.3652.9843.9843,0,0,0,.1616-.5449.9063.9063,0,0,0-.313-.71,1.466,1.466,0,0,0-.99-.2783H34.9867Z"/><path class="cls-4" d="M43.911,40.4247v-6.084h2.2827a2.83,2.83,0,0,1,1.1191.1846,1.4391,1.4391,0,0,1,.6592.5683,1.4981,1.4981,0,0,1,.2393.8028,1.3871,1.3871,0,0,1-.2119.7353,1.5181,1.5181,0,0,1-.64.5557,1.5968,1.5968,0,0,1,.85.5517,1.4833,1.4833,0,0,1,.2959.9219,1.7693,1.7693,0,0,1-.1806.7949,1.5436,1.5436,0,0,1-.4454.5664,1.8769,1.8769,0,0,1-.666.3008,4.08,4.08,0,0,1-.9824.1016Zm.8052-3.5274h1.3154a2.9317,2.9317,0,0,0,.7676-.0712.848.848,0,0,0,.4629-.3028.8759.8759,0,0,0,.1562-.5312.9782.9782,0,0,0-.1455-.5332.7362.7362,0,0,0-.415-.3155,3.4733,3.4733,0,0,0-.9258-.0849H44.7162Zm0,2.81h1.5146a3.4474,3.4474,0,0,0,.5479-.0293,1.3132,1.3132,0,0,0,.4648-.166.8776.8776,0,0,0,.3076-.3379,1.0625,1.0625,0,0,0,.12-.5127,1.0054,1.0054,0,0,0-.1748-.5918.9163.9163,0,0,0-.4824-.3525,2.9876,2.9876,0,0,0-.8906-.1016H44.7162Z"/><path class="cls-4" d="M54.2435,34.3407h.8057v3.5147a4.1754,4.1754,0,0,1-.208,1.457,1.7742,1.7742,0,0,1-.7491.8779,2.653,2.653,0,0,1-1.4218.3379,2.91,2.91,0,0,1-1.3985-.2949,1.6833,1.6833,0,0,1-.7763-.8526,4.0572,4.0572,0,0,1-.2325-1.5253V34.3407h.8057v3.5107a3.4369,3.4369,0,0,0,.1465,1.168,1.12,1.12,0,0,0,.5068.5791,1.7549,1.7549,0,0,0,.8779.2031,1.6772,1.6772,0,0,0,1.2657-.4023,2.3183,2.3183,0,0,0,.3779-1.5479Z"/><path class="cls-4" d="M57.1644,40.4247v-6.084h.8047v6.084Z"/><path class="cls-4" d="M59.9925,40.4247v-6.084h.8057v5.3662h2.9971v.7178Z"/><path class="cls-4" d="M65.391,40.4247v-6.084h2.0957a5.071,5.071,0,0,1,1.0839.0869,2.0725,2.0725,0,0,1,.8926.4356,2.4744,2.4744,0,0,1,.7188,1.04,4.0551,4.0551,0,0,1,.2392,1.4463A4.2718,4.2718,0,0,1,70.26,38.578a3.0134,3.0134,0,0,1-.416.8858,2.1814,2.1814,0,0,1-.5537.5517,2.2427,2.2427,0,0,1-.7266.3057,4.1432,4.1432,0,0,1-.9775.1035Zm.8046-.7178h1.2989a3.172,3.172,0,0,0,.9453-.1123,1.3333,1.3333,0,0,0,.5449-.3154,1.921,1.921,0,0,0,.4473-.77,3.803,3.803,0,0,0,.1592-1.1729,2.8282,2.8282,0,0,0-.3135-1.4668,1.5788,1.5788,0,0,0-.7617-.6875,3.1433,3.1433,0,0,0-1.0411-.124H66.1956Z"/><path class="cls-4" d="M72.1839,40.4247v-6.084h4.3985v.7178H72.9886v1.8633h3.3662v.7138H72.9886v2.0713H76.724v.7178Z"/><path class="cls-4" d="M78.4857,40.4247v-6.084h2.6982a3.59,3.59,0,0,1,1.2364.1631,1.3557,1.3557,0,0,1,.6767.5791,1.7288,1.7288,0,0,1,.2529.918,1.5286,1.5286,0,0,1-.4189,1.0908,2.12,2.12,0,0,1-1.2949.5644,2.0873,2.0873,0,0,1,.4853.3037,4.1477,4.1477,0,0,1,.668.8086l1.0586,1.6563H82.8353l-.8047-1.2656q-.353-.548-.581-.8389a1.8338,1.8338,0,0,0-.4092-.4063,1.1929,1.1929,0,0,0-.3672-.1621,2.4019,2.4019,0,0,0-.4483-.0293h-.9335v2.7022Zm.8057-3.3994h1.73a2.5894,2.5894,0,0,0,.8633-.1143.9154.9154,0,0,0,.4727-.3652.9807.9807,0,0,0,.1621-.5449.9058.9058,0,0,0-.3125-.71,1.4666,1.4666,0,0,0-.99-.2783H79.2914Z"/></g></g></g></svg>