<svg id="Layer_1" data-name="Layer 1" xmlns="http://www.w3.org/2000/svg" xmlns:xlink="http://www.w3.org/1999/xlink" width="248.92" height="87.39" viewBox="0 0 248.92 87.39"><defs><style>.cls-1{fill:none;}.cls-2{isolation:isolate;}.cls-3{fill:#454545;}.cls-4{clip-path:url(#clip-path);}.cls-5{clip-path:url(#clip-path-2);}.cls-6{fill:#3592fe;}.cls-7{fill:url(#linear-gradient);}.cls-8{clip-path:url(#clip-path-3);}.cls-9{fill:#fff;}</style><clipPath id="clip-path"><rect class="cls-1" x="-0.17" y="-9.01" width="250" height="106"/></clipPath><clipPath id="clip-path-2"><rect class="cls-1" x="-0.17" y="-1.01" width="88" height="89"/></clipPath><linearGradient id="linear-gradient" x1="-349.277" y1="4.6977" x2="-348.967" y2="5.3177" gradientTransform="translate(12059.5726 -12372.977) rotate(-45) scale(49.4833 57.2615)" gradientUnits="userSpaceOnUse"><stop offset="0" stop-color="#fff"/><stop offset="1" stop-color="#e8f2fd"/></linearGradient><clipPath id="clip-path-3"><polygon class="cls-1" points="68.26 61.85 25.43 63.17 69.58 19.02 68.26 61.85"/></clipPath></defs><g id="Group_18638" data-name="Group 18638"><g id="grapple"><g class="cls-2"><g class="cls-2"><path class="cls-3" d="M129.7354,32.67a.8241.8241,0,0,1,.22.6055,1.547,1.547,0,0,1-.55,1.0449c-.1846.1836-.33.2744-.4405.2744H127.48q-1.4839,0-1.6494.44a8.1549,8.1549,0,0,0-.33,2.53,11.2474,11.2474,0,0,1-1.21,5.1426,10.302,10.302,0,0,1-3.2172,3.8227,7.2951,7.2951,0,0,1-4.3174,1.43,7.4951,7.4951,0,0,1-2.9151-.55,6.2723,6.2723,0,0,0-1.65,1.1553,1.8058,1.8058,0,0,0-.66,1.1543q0,2.31,7.15,2.75,5.06.2767,7.5346,1.65a4.2779,4.2779,0,0,1,2.4756,3.9052,9.9266,9.9266,0,0,1-1.8154,5.5A14.58,14.58,0,0,1,122.2,68.0082a11.0522,11.0522,0,0,1-5.7749,1.7324,13.5085,13.5085,0,0,1-7.3975-1.76,5.4846,5.4846,0,0,1-2.7226-4.8408,5.7423,5.7423,0,0,1,.44-2.3926,4.8708,4.8708,0,0,1,1.375-1.7324l2.2-1.76,2.42-1.9248a8.3928,8.3928,0,0,1-3.7124-1.43,3.1138,3.1138,0,0,1-1.1274-2.53,2.8207,2.8207,0,0,1,1.2646-2.0352q1.3206-.99,2.0352-1.5674a5.1034,5.1034,0,0,0,1.0449-1.0722,9.2543,9.2543,0,0,1-3.19-3.0533,7.3843,7.3843,0,0,1-1.21-4.0429,7.85,7.85,0,0,1,1.32-4.4541,9.18,9.18,0,0,1,3.52-3.1084,10.2276,10.2276,0,0,1,4.73-1.127,12.89,12.89,0,0,1,3.96.77,10.1968,10.1968,0,0,0,1.1553.3857,16.9662,16.9662,0,0,0,1.98.4394,11.95,11.95,0,0,0,1.7045.11q.6051,0,1.8155-.11l1.21-.0546A.691.691,0,0,1,129.7354,32.67ZM123.41,57.0355a18.15,18.15,0,0,0-6.3252-1.21q-1.5952-.1113-2.3648-.22a11.4786,11.4786,0,0,0-3.3276,3.1074,6.5648,6.5648,0,0,0-.9624,3.6026,4.546,4.546,0,0,0,1.9526,3.7119,7.6224,7.6224,0,0,0,4.8125,1.5127A8.4924,8.4924,0,0,0,122.42,66.055a7.0528,7.0528,0,0,0,2.145-2.7216,8.42,8.42,0,0,0,.77-3.5479A2.9592,2.9592,0,0,0,123.41,57.0355Zm-2.8877-13.1177a9.31,9.31,0,0,0,1.4028-5.2529,6.3666,6.3666,0,0,0-.7427-2.97A6.281,6.281,0,0,0,119.23,33.412a4.3353,4.3353,0,0,0-2.53-.8526,3.8231,3.8231,0,0,0-2.3926.8809,6.2752,6.2752,0,0,0-1.8149,2.3643,7.3663,7.3663,0,0,0-.6875,3.1357,8.7579,8.7579,0,0,0,.7148,3.52,6.6117,6.6117,0,0,0,1.9253,2.6128,4.1435,4.1435,0,0,0,2.64.9629A4.0682,4.0682,0,0,0,120.5225,43.9178Z"/><path class="cls-3" d="M129.57,53.35a.53.53,0,0,1,.2744-.5225,7.5919,7.5919,0,0,1,.99-.3574q2.0887-.4952,2.09-2.09V38.5546a6.1286,6.1286,0,0,0-.4951-2.667,2.3955,2.3955,0,0,0-1.76-1.293.6838.6838,0,0,1-.3847-.2744.7281.7281,0,0,1-.1651-.4405.6239.6239,0,0,1,.1651-.4121.7827.7827,0,0,1,.33-.248,27.2148,27.2148,0,0,0,5.4444-2.6943,2.0822,2.0822,0,0,1,.8252-.3858q.2754,0,.2754.3858,0,1.4838-.1651,4.125a.0964.0964,0,0,0,.1094.1093,12.5162,12.5162,0,0,1,3.08-2.6943A6.2483,6.2483,0,0,1,143.43,31.02a3.3528,3.3528,0,0,1,1.8974.4941A1.4758,1.4758,0,0,1,146.07,32.78a3.324,3.324,0,0,1-.6875,1.87,1.8752,1.8752,0,0,1-1.458.9892,3.8185,3.8185,0,0,1-1.54-.4941c-.11-.0362-.3575-.1289-.7422-.2754a2.919,2.919,0,0,0-1.0176-.22,3.7661,3.7661,0,0,0-2.6953,1.0449,4.7937,4.7937,0,0,0-1.1,3.5752V50.38a1.3785,1.3785,0,0,0,.7148,1.1827,8.7013,8.7013,0,0,0,2.2.9072,6.4141,6.4141,0,0,1,.9619.3857.5314.5314,0,0,1,.3028.4942q0,.6065-1.1.6054a17.61,17.61,0,0,1-2.585-.165q-1.32-.11-2.2-.11t-2.09.11a13.385,13.385,0,0,1-2.3653.165C129.9355,53.9554,129.57,53.7543,129.57,53.35Z"/><path class="cls-3" d="M149.1494,53.8177a6.2519,6.2519,0,0,1-1.7324-1.87A4.0968,4.0968,0,0,1,146.73,49.83a3.84,3.84,0,0,1,.9072-2.6953,8.6132,8.6132,0,0,1,2.9981-1.87l5.6093-2.31a3.1047,3.1047,0,0,0,1.2657-.7705,3.2846,3.2846,0,0,0,.2744-1.43l.11-3.52a3.4894,3.4894,0,0,0-.8252-2.5029,3.034,3.034,0,0,0-2.42-1.0176A5.18,5.18,0,0,0,153,33.99a4.4054,4.4054,0,0,0-1.375.7148,1.8513,1.8513,0,0,0-.5508,1.5948l.0557.99q0,.4408-1.4024,1.1826a5.2053,5.2053,0,0,1-2.2275.7422.6587.6587,0,0,1-.44-.1377.44.44,0,0,1-.1651-.3574,3.8862,3.8862,0,0,1,.5772-1.8975,7.0712,7.0712,0,0,1,1.623-1.8974,16.8651,16.8651,0,0,1,4.2071-2.8047,9.7306,9.7306,0,0,1,3.9882-1.1,4.2576,4.2576,0,0,1,3.2725,1.4023A4.7688,4.7688,0,0,1,161.8,35.9149l-.2754,13.2007a2.7533,2.7533,0,0,0,.4951,1.87,1.7748,1.7748,0,0,0,1.4854.7148,2.9319,2.9319,0,0,0,2.0351-.6054.7515.7515,0,0,1,.44-.2744.5679.5679,0,0,1,.6055.6045,1.4852,1.4852,0,0,1-.1651.5781,2.1666,2.1666,0,0,1-.44.6318,7.5743,7.5743,0,0,1-1.8975,1.4024,4.184,4.184,0,0,1-1.8974.5224q-2.53,0-4.0147-2.8594h-.165a14.2127,14.2127,0,0,1-3.4649,2.1719,8.776,8.776,0,0,1-3.41.6875A3.46,3.46,0,0,1,149.1494,53.8177ZM156.96,50.6a2.0613,2.0613,0,0,0,.4941-.8243,5.854,5.854,0,0,0,.2207-1.4306l.1094-2.6944v-.33a1.3541,1.3541,0,0,0-.1094-.6333.4075.4075,0,0,0-.3848-.1924,3.8343,3.8343,0,0,0-1.1.2754,12.11,12.11,0,0,0-3.96,2.09,3.0357,3.0357,0,0,0-1.21,2.1445,2.8414,2.8414,0,0,0,.7979,2.1455,2.6335,2.6335,0,0,0,1.8974.77A4.41,4.41,0,0,0,156.96,50.6Z"/><path class="cls-3" d="M166.0342,68.97a.6373.6373,0,0,1,.3027-.5772,4.5415,4.5415,0,0,1,.9619-.4121,8.5348,8.5348,0,0,0,1.7881-.7431,1.4583,1.4583,0,0,0,.5772-1.3477V38.0047a5.7651,5.7651,0,0,0-.66-2.3369,2.7541,2.7541,0,0,0-1.87-1.6777.503.503,0,0,1-.33-.248.9256.9256,0,0,1-.1094-.4668c0-.3663.128-.587.3848-.66a27.0706,27.0706,0,0,0,4.2354-1.293q1.8149-.7426,2.1445-.9072l.11-.0547c.0723,0,.1455.0547.22.1651a.59.59,0,0,1,.11.33l-.11,1.43a11.3647,11.3647,0,0,0-.1651,1.87,1.1027,1.1027,0,0,0,.0547.4952,10.3918,10.3918,0,0,1,2.1182-1.4581,21.79,21.79,0,0,1,3.3545-1.5126,10.2423,10.2423,0,0,1,3.4375-.6592,7.9326,7.9326,0,0,1,4.7578,1.4843,9.65,9.65,0,0,1,3.1621,3.878,11.9067,11.9067,0,0,1,1.1006,5.0322,13.09,13.09,0,0,1-1.65,6.2983,13.6174,13.6174,0,0,1-4.51,4.9493,11.0193,11.0193,0,0,1-6.2148,1.8974,10.7693,10.7693,0,0,1-2.9707-.5224A6.4377,6.4377,0,0,1,173.7344,52.8q-.1113,0-.1651,1.1005-.0557,1.0988-.0556,1.7051V65.89a1.34,1.34,0,0,0,.7158,1.2383,5.8713,5.8713,0,0,0,1.457.6045q.7426.1918,1.0176.248a4.5759,4.5759,0,0,1,.9629.4121.64.64,0,0,1,.3018.5772q0,.4951-1.21.4951a21.2735,21.2735,0,0,1-2.75-.165q-1.4312-.11-2.42-.1094-.88,0-2.09.1094a12.9866,12.9866,0,0,1-2.3095.165Q166.0336,69.4652,166.0342,68.97Zm17.0224-17.0772a8.0645,8.0645,0,0,0,2.9151-3.1621,11.2206,11.2206,0,0,0,1.2373-5.5561q0-5.5548-2.3926-7.6172a7.1834,7.1834,0,0,0-7.7275-1.54,9.9968,9.9968,0,0,0-2.42,1.2373q-.99.7164-.99,1.1006,0,2.4741-.1094,5.7744-.0557,1.1016-.0556,2.53a8.96,8.96,0,0,0,3.52,7.0679,5.1289,5.1289,0,0,0,3.0244,1.1279A6.1835,6.1835,0,0,0,183.0566,51.8929Z"/></g><g class="cls-2"><path class="cls-3" d="M192.4854,68.97a.6371.6371,0,0,1,.3027-.5772,4.5391,4.5391,0,0,1,.9619-.4121,8.54,8.54,0,0,0,1.7881-.7431,1.4583,1.4583,0,0,0,.5771-1.3477V38.0047a5.7647,5.7647,0,0,0-.66-2.3369,2.7543,2.7543,0,0,0-1.87-1.6777.5028.5028,0,0,1-.33-.248.9246.9246,0,0,1-.1094-.4668c0-.3663.1279-.587.3848-.66a27.0659,27.0659,0,0,0,4.2353-1.293q1.815-.7426,2.1446-.9072l.11-.0547c.0723,0,.1455.0547.22.1651a.59.59,0,0,1,.11.33l-.11,1.43a11.375,11.375,0,0,0-.165,1.87,1.1027,1.1027,0,0,0,.0547.4952,10.3934,10.3934,0,0,1,2.1181-1.4581,21.7947,21.7947,0,0,1,3.3545-1.5126A10.2432,10.2432,0,0,1,209.04,31.02a7.9329,7.9329,0,0,1,4.7579,1.4843,9.65,9.65,0,0,1,3.1621,3.878,11.9066,11.9066,0,0,1,1.1,5.0322,13.09,13.09,0,0,1-1.65,6.2983,13.6191,13.6191,0,0,1-4.51,4.9493,11.0194,11.0194,0,0,1-6.2149,1.8974,10.77,10.77,0,0,1-2.9707-.5224A6.4384,6.4384,0,0,1,200.1855,52.8q-.1113,0-.165,1.1005-.0557,1.0988-.0557,1.7051V65.89a1.34,1.34,0,0,0,.7159,1.2383,5.87,5.87,0,0,0,1.457.6045q.7427.1918,1.0176.248a4.5783,4.5783,0,0,1,.9629.4121.64.64,0,0,1,.3017.5772q0,.4951-1.21.4951a21.2724,21.2724,0,0,1-2.75-.165q-1.4312-.11-2.42-.1094-.88,0-2.09.1094a12.987,12.987,0,0,1-2.31.165Q192.4849,69.4652,192.4854,68.97Zm17.0224-17.0772a8.0645,8.0645,0,0,0,2.9151-3.1621,11.2217,11.2217,0,0,0,1.2373-5.5561q0-5.5548-2.3926-7.6172a7.1836,7.1836,0,0,0-7.7276-1.54,9.996,9.996,0,0,0-2.42,1.2373q-.99.7164-.99,1.1006,0,2.4741-.1094,5.7744-.0557,1.1016-.0557,2.53a8.9606,8.9606,0,0,0,3.5206,7.0679,5.1289,5.1289,0,0,0,3.0244,1.1279A6.1838,6.1838,0,0,0,209.5078,51.8929Z"/></g><g class="cls-2"><path class="cls-3" d="M218.4453,53.46a.6394.6394,0,0,1,.3027-.5771,4.6834,4.6834,0,0,1,.962-.4131,8.3881,8.3881,0,0,0,1.788-.7422,1.4583,1.4583,0,0,0,.5772-1.3477V22.66q0-3.4658-2.53-4.0146a.5035.5035,0,0,1-.33-.2481.9263.9263,0,0,1-.1093-.4677q0-.5495.3847-.6592a30.8435,30.8435,0,0,0,4.8946-1.65l1.32-.4951a.8419.8419,0,0,1,.33-.11.2334.2334,0,0,1,.1923.1377.5.5,0,0,1,.083.2481q0,.33-.1933,2.09t-.1924,5.39V50.38a1.4568,1.4568,0,0,0,.5781,1.3477,8.3563,8.3563,0,0,0,1.7871.7422,4.6931,4.6931,0,0,1,.9629.4131.64.64,0,0,1,.3018.5771q0,.4952-1.1.4951a13.9617,13.9617,0,0,1-2.3653-.165q-1.21-.11-2.09-.11t-2.09.11a13.385,13.385,0,0,1-2.3653.165Q218.4448,53.9554,218.4453,53.46Z"/><path class="cls-3" d="M235.4121,53.13a9.7954,9.7954,0,0,1-3.5478-4.207A14.7917,14.7917,0,0,1,230.6,42.6249a11.9618,11.9618,0,0,1,1.457-5.7754,11.4656,11.4656,0,0,1,3.878-4.2617,9.52,9.52,0,0,1,5.28-1.5674,7.683,7.683,0,0,1,5.417,1.9521A6.4738,6.4738,0,0,1,248.749,37.95a1.4829,1.4829,0,0,1-1.6494,1.705H235.4941a1.2465,1.2465,0,0,0-1.0722.4121,2.98,2.98,0,0,0-.3028,1.6231,10.33,10.33,0,0,0,1.128,4.7847,9.03,9.03,0,0,0,3.08,3.4931A7.567,7.567,0,0,0,242.59,51.26a6.8339,6.8339,0,0,0,5.39-2.4746c.22-.293.4209-.44.6045-.44.2939,0,.44.1845.44.5508a3.8866,3.8866,0,0,1-.99,2.31,8.2187,8.2187,0,0,1-3.19,2.503,9.9267,9.9267,0,0,1-4.1806.9072A9.41,9.41,0,0,1,235.4121,53.13Zm5.1973-15.18a23.388,23.388,0,0,0,4.07-.2754q.44-.0543.4394-1.21a3.3888,3.3888,0,0,0-1.4023-2.7226,5.15,5.15,0,0,0-3.3272-1.127,5.0167,5.0167,0,0,0-2.5029.7422A6.9034,6.9034,0,0,0,235.77,35.2a3.6592,3.6592,0,0,0-.8252,2.2q0,.5493.66.55Z"/></g></g></g><g class="cls-4"><g id="Mask_Group_419" data-name="Mask Group 419"><g class="cls-5"><g id="Mask_Group_411" data-name="Mask Group 411"><g id="Group_18614" data-name="Group 18614"><g id="Group_18613" data-name="Group 18613"><circle id="Ellipse_2579" data-name="Ellipse 2579" class="cls-6" cx="43.69" cy="43.69" r="43.69"/><g id="Group_18612" data-name="Group 18612"><path id="Subtraction_124" data-name="Subtraction 124" class="cls-7" d="M64.29,65.82l-.1.1a29.0018,29.0018,0,0,1-4.49,3.63,28.69,28.69,0,0,1-26.46,2.54,28.0045,28.0045,0,0,1-5-2.62,28.7805,28.7805,0,0,1-8.14-8.13,28.49,28.49,0,0,1-4.15-10.25A28.5411,28.5411,0,0,1,23.7,25.43L38.55,10.58,48.72,20.75,34.08,35.4h0A14.1,14.1,0,0,0,54.01,55.33h0l3.87-3.87L68.26,61.85Z"/><g class="cls-8"><g id="Mask_Group_410" data-name="Mask Group 410"><path id="Rectangle_5518" data-name="Rectangle 5518" class="cls-9" d="M48.72,42.32,59.51,31.53,79.04,51.06,68.26,61.85Z"/></g></g></g></g></g></g></g></g></g></g></svg>