<?xml version="1.0" encoding="UTF-8"?>
<svg width="10px" height="19px" viewBox="0 0 10 19" version="1.1" xmlns="http://www.w3.org/2000/svg" xmlns:xlink="http://www.w3.org/1999/xlink">
    <title>?@1x</title>
    <g id="Symbols" stroke="none" stroke-width="1" fill="none" fill-rule="evenodd">
        <g id="UI/BTN/Help2" transform="translate(-18.000000, -13.000000)" fill="#FFFFFF" fill-rule="nonzero">
            <g id="Group">
                <path d="M22.75,25.825 C24.525,25.825 25.7,24.95 26.225,23.2 L24.2,22.425 C23.875,23.35 23.475,23.85 22.7,23.85 C22.025,23.85 21.625,23.45 21.625,22.825 C21.625,22.225 21.975,21.75 22.675,21.425 L25.5,20.05 C26.675,19.475 27.275,18.5 27.275,17.15 C27.275,14.75 25.4,13.3 22.8,13.3 C20.275,13.3 18.525,14.85 18.125,17.075 L20.5,17.475 C20.875,16.1 21.7,15.425 22.95,15.425 C23.975,15.425 24.775,16.05 24.775,16.95 C24.775,17.825 24.45,18.275 23.55,18.7 L21.475,19.65 C20.05,20.3 19.35,21.325 19.35,22.725 C19.35,24.625 20.725,25.825 22.75,25.825 Z M24.1,30.575 C24.825,29.85 24.825,28.6 24.1,27.9 C23.4,27.175 22.1,27.175 21.375,27.9 C20.675,28.6 20.675,29.85 21.375,30.575 C22.1,31.275 23.4,31.275 24.1,30.575 Z" id="?"></path>
            </g>
        </g>
    </g>
</svg>