<svg xmlns="http://www.w3.org/2000/svg" width="221" height="21" viewBox="0 0 221 21">
    <g fill="none" fill-rule="evenodd">
        <g>
            <g>
                <path fill="#2A2929" fill-rule="nonzero" d="M7.088 18.08L11.616 6.8H8.96l-2.928 7.888L3.104 6.8H.384l4.528 11.28h2.176zM18.787 18V6.8h-2.464V18h2.464zm8.13 0v-3.584h1.936l2.4 3.584h2.88l-2.736-4c1.424-.528 2.4-1.664 2.4-3.472v-.032c0-1.056-.336-1.936-.96-2.56-.736-.736-1.84-1.136-3.264-1.136h-5.12V18h2.464zm2.496-5.76h-2.496V9.024h2.448c1.2 0 1.936.544 1.936 1.6v.032c0 .944-.688 1.584-1.888 1.584zM43.96 18V9.072h3.408V6.8h-9.28v2.272h3.408V18h2.464zm12.835.176c3.008 0 4.912-1.664 4.912-5.056V6.8h-2.464v6.416c0 1.776-.912 2.688-2.416 2.688s-2.416-.944-2.416-2.768V6.8h-2.464v6.4c0 3.296 1.84 4.976 4.848 4.976zM68.237 18l1.024-2.512h4.736L75.021 18h2.576l-4.8-11.28h-2.272L65.725 18h2.512zm4.88-4.688h-2.976L71.63 9.68l1.488 3.632zM90.24 18v-2.24h-5.584V6.8h-2.464V18h8.048zm20.437 0v-2.24h-5.584V6.8h-2.464V18h8.048zm6.275 0l1.024-2.512h4.736L123.736 18h2.576l-4.8-11.28h-2.272L114.44 18h2.512zm4.88-4.688h-2.976l1.488-3.632 1.488 3.632zm12.739 4.768l2.528-7.328 2.528 7.328h2.144l3.824-11.28h-2.576l-2.32 7.584-2.512-7.616h-2.112l-2.512 7.616-2.32-7.584h-2.64l3.824 11.28h2.144zm21.01-.08v-4.464l4.304-6.736h-2.8l-2.72 4.496-2.672-4.496h-2.88l4.304 6.784V18h2.464zm17.235 0v-2.192h-6.08v-2.352h5.28v-2.192h-5.28V8.992h6V6.8h-8.448V18h8.528zm7.523 0v-3.584h1.936l2.4 3.584h2.88l-2.736-4c1.424-.528 2.4-1.664 2.4-3.472v-.032c0-1.056-.336-1.936-.96-2.56-.736-.736-1.84-1.136-3.264-1.136h-5.12V18h2.464zm2.496-5.76h-2.496V9.024h2.448c1.2 0 1.936.544 1.936 1.6v.032c0 .944-.688 1.584-1.888 1.584z" transform="translate(-30 -49) translate(30 49)"/>
                <g transform="translate(-30 -49) translate(30 49) translate(193)">
                    <rect width="28" height="12" fill="#F85959" rx=".5"/>
                    <text fill="#FFF" font-family="Apercu-Medium, Apercu" font-size="9" font-weight="400" letter-spacing="-.075">
                        <tspan x="4" y="9">BETA</tspan>
                    </text>
                </g>
            </g>
        </g>
    </g>
</svg>
